<?xml version="1.0" encoding="UTF-8"?>
<svg width="235px" height="154px" viewBox="0 0 235 154" version="1.1" xmlns="http://www.w3.org/2000/svg" xmlns:xlink="http://www.w3.org/1999/xlink">
    <!-- Generator: Sketch 48.2 (47327) - http://www.bohemiancoding.com/sketch -->
    <title>architectureDataSources</title>
    <desc>Created with Sketch.</desc>
    <defs>
        <polygon id="path-1" points="0 43.4570312 166.679688 146.232422 227.548828 102.857422 61.484375 0"></polygon>
        <filter x="-3.1%" y="-3.4%" width="106.2%" height="109.6%" filterUnits="objectBoundingBox" id="filter-2">
            <feOffset dx="0" dy="2" in="SourceAlpha" result="shadowOffsetOuter1"></feOffset>
            <feGaussianBlur stdDeviation="2" in="shadowOffsetOuter1" result="shadowBlurOuter1"></feGaussianBlur>
            <feColorMatrix values="0 0 0 0 0   0 0 0 0 0   0 0 0 0 0  0 0 0 0.5 0" type="matrix" in="shadowBlurOuter1"></feColorMatrix>
        </filter>
    </defs>
    <g id="Architecture" stroke="none" stroke-width="1" fill="none" fill-rule="evenodd">
        <g id="architectureDataSources" transform="translate(4.000000, 2.000000)">
            <g id="Path-4">
                <use fill="black" fill-opacity="1" filter="url(#filter-2)" xlink:href="#path-1"></use>
                <use fill="#D8D8D8" fill-rule="evenodd" xlink:href="#path-1"></use>
            </g>
            <circle id="Oval" stroke="#4A4A4A" fill="#4A4A4A" cx="113.5" cy="61.5" r="3.5"></circle>
            <circle id="Oval" stroke="#4A4A4A" fill="#4A4A4A" cx="126.5" cy="68.5" r="3.5"></circle>
            <g id="NUTTAB" transform="translate(42.000000, 3.000000)" fill="#7ED321" stroke="#B8E986">
                <path d="M4.56341912,46.5065002 C13.3529412,51.9113159 14.2274816,52.3379517 23.4200368,57.4960327 C29.5484069,60.9347534 35.5549939,60.6689453 41.4397978,56.6986084 L67.5565257,39.1648865 C73.1824449,35.4536438 72.8632047,31.7326355 66.5988051,28.0018616 C57.2022059,22.4057007 57.1029412,22.8529358 47.8451287,17.6545715 C41.6732537,14.1889954 35.8671875,14.3461609 30.4269301,18.1260681 L4.56341912,35.3503418 C-1.29626225,39.1845703 -1.29626225,42.9032898 4.56341912,46.5065002 Z" id="Path"></path>
                <path d="M4.56341912,44.6315002 C13.3529412,50.0363159 14.2274816,50.4629517 23.4200368,55.6210327 C29.5484069,59.0597534 35.5549939,58.7939453 41.4397978,54.8236084 L67.5565257,37.2898865 C73.1824449,33.5786438 72.8632047,29.8576355 66.5988051,26.1268616 C57.2022059,20.5307007 57.1029412,20.9779358 47.8451287,15.7795715 C41.6732537,12.3139954 35.8671875,12.4711609 30.4269301,16.2510681 L4.56341912,33.4753418 C-1.29626225,37.3095703 -1.29626225,41.0282898 4.56341912,44.6315002 Z" id="Path"></path>
                <path d="M4.56341912,42.2877502 C13.3529412,47.6925659 14.2274816,48.1192017 23.4200368,53.2772827 C29.5484069,56.7160034 35.5549939,56.4501953 41.4397978,52.4798584 L67.5565257,34.9461365 C73.1824449,31.2348938 72.8632047,27.5138855 66.5988051,23.7831116 C57.2022059,18.1869507 57.1029412,18.6341858 47.8451287,13.4358215 C41.6732537,9.97024536 35.8671875,10.1274109 30.4269301,13.9073181 L4.56341912,31.1315918 C-1.29626225,34.9658203 -1.29626225,38.6845398 4.56341912,42.2877502 Z" id="Path"></path>
                <path d="M4.56341912,39.9440002 C13.3529412,45.3488159 14.2274816,45.7754517 23.4200368,50.9335327 C29.5484069,54.3722534 35.5549939,54.1064453 41.4397978,50.1361084 L67.5565257,32.6023865 C73.1824449,28.8911438 72.8632047,25.1701355 66.5988051,21.4393616 C57.2022059,15.8432007 57.1029412,16.2904358 47.8451287,11.0920715 C41.6732537,7.62649536 35.8671875,7.78366089 30.4269301,11.5635681 L4.56341912,28.7878418 C-1.29626225,32.6220703 -1.29626225,36.3407898 4.56341912,39.9440002 Z" id="Path"></path>
                <path d="M4.56341912,37.1315002 C13.3529412,42.5363159 14.2274816,42.9629517 23.4200368,48.1210327 C29.5484069,51.5597534 35.5549939,51.2939453 41.4397978,47.3236084 L67.5565257,29.7898865 C73.1824449,26.0786438 72.8632047,22.3576355 66.5988051,18.6268616 C57.2022059,13.0307007 57.1029412,13.4779358 47.8451287,8.27957153 C41.6732537,4.81399536 35.8671875,4.97116089 30.4269301,8.75106812 L4.56341912,25.9753418 C-1.29626225,29.8095703 -1.29626225,33.5282898 4.56341912,37.1315002 Z" id="Path"></path>
                <path d="M4.56341912,34.3190002 C13.3529412,39.7238159 14.2274816,40.1504517 23.4200368,45.3085327 C29.5484069,48.7472534 35.5549939,48.4814453 41.4397978,44.5111084 L67.5565257,26.9773865 C73.1824449,23.2661438 72.8632047,19.5451355 66.5988051,15.8143616 C57.2022059,10.2182007 57.1029412,10.6654358 47.8451287,5.46707153 C41.6732537,2.00149536 35.8671875,2.15866089 30.4269301,5.93856812 L4.56341912,23.1628418 C-1.29626225,26.9970703 -1.29626225,30.7157898 4.56341912,34.3190002 Z" id="Path"></path>
                <path d="M4.56341912,31.5065002 C13.3529412,36.9113159 14.2274816,37.3379517 23.4200368,42.4960327 C29.5484069,45.9347534 35.5549939,45.6689453 41.4397978,41.6986084 L67.5565257,24.1648865 C73.1824449,20.4536438 72.8632047,16.7326355 66.5988051,13.0018616 C57.2022059,7.40570068 57.1029412,7.85293579 47.8451287,2.65457153 C41.6732537,-0.811004639 35.8671875,-0.653839111 30.4269301,3.12606812 L4.56341912,20.3503418 C-1.29626225,24.1845703 -1.29626225,27.9032898 4.56341912,31.5065002 Z" id="Path"></path>
            </g>
            <g id="NUTTAB" transform="translate(135.000000, 62.000000)" fill="#4A90E2" stroke="#50E3C2">
                <path d="M4.56341912,46.5065002 C13.3529412,51.9113159 14.2274816,52.3379517 23.4200368,57.4960327 C29.5484069,60.9347534 35.5549939,60.6689453 41.4397978,56.6986084 L67.5565257,39.1648865 C73.1824449,35.4536438 72.8632047,31.7326355 66.5988051,28.0018616 C57.2022059,22.4057007 57.1029412,22.8529358 47.8451287,17.6545715 C41.6732537,14.1889954 35.8671875,14.3461609 30.4269301,18.1260681 L4.56341912,35.3503418 C-1.29626225,39.1845703 -1.29626225,42.9032898 4.56341912,46.5065002 Z" id="Path"></path>
                <path d="M4.56341912,44.6315002 C13.3529412,50.0363159 14.2274816,50.4629517 23.4200368,55.6210327 C29.5484069,59.0597534 35.5549939,58.7939453 41.4397978,54.8236084 L67.5565257,37.2898865 C73.1824449,33.5786438 72.8632047,29.8576355 66.5988051,26.1268616 C57.2022059,20.5307007 57.1029412,20.9779358 47.8451287,15.7795715 C41.6732537,12.3139954 35.8671875,12.4711609 30.4269301,16.2510681 L4.56341912,33.4753418 C-1.29626225,37.3095703 -1.29626225,41.0282898 4.56341912,44.6315002 Z" id="Path"></path>
                <path d="M4.56341912,42.2877502 C13.3529412,47.6925659 14.2274816,48.1192017 23.4200368,53.2772827 C29.5484069,56.7160034 35.5549939,56.4501953 41.4397978,52.4798584 L67.5565257,34.9461365 C73.1824449,31.2348938 72.8632047,27.5138855 66.5988051,23.7831116 C57.2022059,18.1869507 57.1029412,18.6341858 47.8451287,13.4358215 C41.6732537,9.97024536 35.8671875,10.1274109 30.4269301,13.9073181 L4.56341912,31.1315918 C-1.29626225,34.9658203 -1.29626225,38.6845398 4.56341912,42.2877502 Z" id="Path"></path>
                <path d="M4.56341912,39.9440002 C13.3529412,45.3488159 14.2274816,45.7754517 23.4200368,50.9335327 C29.5484069,54.3722534 35.5549939,54.1064453 41.4397978,50.1361084 L67.5565257,32.6023865 C73.1824449,28.8911438 72.8632047,25.1701355 66.5988051,21.4393616 C57.2022059,15.8432007 57.1029412,16.2904358 47.8451287,11.0920715 C41.6732537,7.62649536 35.8671875,7.78366089 30.4269301,11.5635681 L4.56341912,28.7878418 C-1.29626225,32.6220703 -1.29626225,36.3407898 4.56341912,39.9440002 Z" id="Path"></path>
                <path d="M4.56341912,37.1315002 C13.3529412,42.5363159 14.2274816,42.9629517 23.4200368,48.1210327 C29.5484069,51.5597534 35.5549939,51.2939453 41.4397978,47.3236084 L67.5565257,29.7898865 C73.1824449,26.0786438 72.8632047,22.3576355 66.5988051,18.6268616 C57.2022059,13.0307007 57.1029412,13.4779358 47.8451287,8.27957153 C41.6732537,4.81399536 35.8671875,4.97116089 30.4269301,8.75106812 L4.56341912,25.9753418 C-1.29626225,29.8095703 -1.29626225,33.5282898 4.56341912,37.1315002 Z" id="Path"></path>
                <path d="M4.56341912,34.3190002 C13.3529412,39.7238159 14.2274816,40.1504517 23.4200368,45.3085327 C29.5484069,48.7472534 35.5549939,48.4814453 41.4397978,44.5111084 L67.5565257,26.9773865 C73.1824449,23.2661438 72.8632047,19.5451355 66.5988051,15.8143616 C57.2022059,10.2182007 57.1029412,10.6654358 47.8451287,5.46707153 C41.6732537,2.00149536 35.8671875,2.15866089 30.4269301,5.93856812 L4.56341912,23.1628418 C-1.29626225,26.9970703 -1.29626225,30.7157898 4.56341912,34.3190002 Z" id="Path"></path>
                <path d="M4.56341912,31.5065002 C13.3529412,36.9113159 14.2274816,37.3379517 23.4200368,42.4960327 C29.5484069,45.9347534 35.5549939,45.6689453 41.4397978,41.6986084 L67.5565257,24.1648865 C73.1824449,20.4536438 72.8632047,16.7326355 66.5988051,13.0018616 C57.2022059,7.40570068 57.1029412,7.85293579 47.8451287,2.65457153 C41.6732537,-0.811004639 35.8671875,-0.653839111 30.4269301,3.12606812 L4.56341912,20.3503418 C-1.29626225,24.1845703 -1.29626225,27.9032898 4.56341912,31.5065002 Z" id="Path"></path>
            </g>
        </g>
    </g>
</svg>