<?xml version="1.0" encoding="UTF-8"?>
<svg width="88px" height="73px" viewBox="0 0 88 73" version="1.1" xmlns="http://www.w3.org/2000/svg" xmlns:xlink="http://www.w3.org/1999/xlink">
    <!-- Generator: Sketch 48.2 (47327) - http://www.bohemiancoding.com/sketch -->
    <title>architectureAI</title>
    <desc>Created with Sketch.</desc>
    <defs>
        <rect id="path-1" x="14.3928571" y="9.81469649" width="1.54761905" height="1.53354633" rx="0.766773163"></rect>
        <rect id="path-2" x="4.95238095" y="4.14057508" width="1.85714286" height="1.84025559" rx="0.920127796"></rect>
        <rect id="path-3" x="2.94047619" y="29.9041534" width="2.01190476" height="1.99361022" rx="0.996805112"></rect>
        <rect id="path-4" x="13" y="32.971246" width="2.32142857" height="2.30031949" rx="1.15015974"></rect>
        <rect id="path-5" x="6.80952381" y="41.0990415" width="2.16666667" height="2.14696486" rx="1.07348243"></rect>
        <rect id="path-6" x="14.3928571" y="9.81469649" width="1.54761905" height="1.53354633" rx="0.766773163"></rect>
        <rect id="path-7" x="4.95238095" y="4.14057508" width="1.85714286" height="1.84025559" rx="0.920127796"></rect>
        <rect id="path-8" x="2.94047619" y="29.9041534" width="2.01190476" height="1.99361022" rx="0.996805112"></rect>
        <rect id="path-9" x="13" y="32.971246" width="2.32142857" height="2.30031949" rx="1.15015974"></rect>
        <rect id="path-10" x="6.80952381" y="41.0990415" width="2.16666667" height="2.14696486" rx="1.07348243"></rect>
    </defs>
    <g id="Architecture" stroke="none" stroke-width="1" fill="none" fill-rule="evenodd">
        <g id="architectureAI" transform="translate(1.000000, -9.000000)">
            <g id="HEXAGOn" transform="translate(0.000000, 14.000000)" stroke="#979797">
                <polygon id="Path-25" points="84.0258982 23.0765475 62.4697432 9.61503417 21.0591134 10.550919 0.456637168 25.1268012 2.2342552 53.4092653 23.8654256 66.9416791 65.2459263 66.0563493 85.8477876 51.0760268"></polygon>
                <polygon id="Path-25" fill="#D8D8D8" points="83.569261 13.4615134 62.013106 0 20.6024762 0.935884828 0 15.511767 1.77761804 43.7942312 23.4087885 57.3266449 64.7892891 56.4413151 85.3911504 41.4609926"></polygon>
                <polygon id="Path-26" fill="#D8D8D8" points="1.74033462 43.7231278 2.17586421 53.4287799 24.0016939 66.8992472 65.1567132 66.0747437 85.9771087 51.0205501 85.3724212 41.2078855 64.8475318 56.3461391 23.3336836 57.2943479"></polygon>
            </g>
            <g id="HEMISPHERE1" transform="translate(53.000000, 47.624067) rotate(54.000000) translate(-53.000000, -47.624067) translate(40.000000, 23.624067)">
                <path d="M0.0548618862,44.3723542 L0.0548618862,3.30625998 C1.80421322,1.90960738 3.37460323,0.971658099 4.7660319,0.492412141 C6.15746057,0.0131661822 7.58522983,-0.0815323002 9.04933966,0.208316693 C10.5130778,1.01972195 11.488249,1.69748752 11.9748535,2.24161342 C12.461458,2.78573931 12.9590437,3.44892821 13.4676107,4.23118011 C15.9603252,4.63263778 17.9812981,5.81220048 19.5305292,7.76986821 C21.0797604,9.72753594 21.6235429,12.0751797 21.1618769,14.8127995 C22.5125171,16.2874401 23.4692499,17.580022 24.0320754,18.6905451 C24.5949009,19.8010683 25.1670464,21.5671628 25.7485119,23.9888287 C26.0682121,26.0311205 25.7169751,28.120607 24.694801,30.2572883 C23.6726268,32.3939696 22.5660691,33.8857827 21.3751279,34.7327276 C21.3751279,36.3682109 21.0591053,37.9019569 20.4270601,39.3339657 C19.7950149,40.7659744 19.0629185,41.9180312 18.230771,42.7901358 C17.4110859,43.5699988 16.4777789,44.1593559 15.4308501,44.5582069 C14.3839213,44.9570579 13.3126787,45.131379 12.2171224,45.0811701 C10.5865808,46.7542931 8.74465216,47.696885 6.6913365,47.9089457 C4.63802083,48.1210064 2.42586263,46.9421426 0.0548618862,44.3723542 Z M8.9680292,0.930910543 L1.58676293,3.52670727 L1.58676293,44.8059105 L7.34695871,46.2466054 L12.2982817,43.1881989 L17.0600818,42.0101837 L24.9478004,24.0059904 L20.1782924,14.8622204 L18.6655855,8.13258786 C14.8660598,6.04462859 12.9268004,4.96041334 12.8478074,4.87994209 C12.7688143,4.79947085 11.4755549,3.483127 8.9680292,0.930910543 Z" id="Combined-Shape" stroke="#06799E" fill="#06799E"></path>
                <polyline id="Path-17" stroke="#06799E" stroke-width="2" points="12.8216611 4.86526558 5.86326962 5.08122005 8.66016788 1.07842452"></polyline>
                <polyline id="Path-18" stroke="#06799E" stroke-width="2" points="3.62859235 2.84844249 5.91133045 5.13124002 1.24746559 13.5527157 15.2593122 10.6494609 18.5572219 8.20057907"></polyline>
                <polyline id="Path-19" stroke="#06799E" stroke-width="2" points="5.92825753 5.1252496 15.2147275 10.6326877 20.0088704 14.797524 6.2973284 12.6143171 8.48651414 20.6928415 1.20212519 13.7171526"></polyline>
                <polyline id="Path-20" stroke="#06799E" stroke-width="2" points="8.48454939 20.7226438 17.0165551 18.5380891 20.0079636 14.8502396"></polyline>
                <polyline id="Path-21" stroke="#06799E" stroke-width="2" points="16.9913156 18.5548622 18.533796 24.5690895 24.8244745 24.0609525 14.1261044 34.3911242 18.533796 24.8537839 7.91431827 27.7095647 8.42651367 20.8291234 1.49457078 24.0609525 7.62126814 27.7095647 13.8457496 34.1377296 3.8406343 30.8491414 1.49457078 24.5690895"></polyline>
                <polyline id="Path-22" stroke="#06799E" stroke-width="2" points="3.85650344 30.9364517 1.23869978 35.517472 7.70545015 42.213109 13.9663551 34.4028055 17.128697 41.6306909"></polyline>
                <polyline id="Path-23" stroke="#06799E" stroke-width="2" points="12.2647298 43.1521066 7.68232654 42.3207867 7.68232654 45.9975539"></polyline>
                <path d="M2.93972052,44.9844249 C2.93972052,44.9844249 4.49968223,44.0890575 7.61960565,42.2983227" id="Path-24" stroke="#06799E" stroke-width="2"></path>
                <ellipse id="Oval-3" stroke="#06799E" fill="#06799E" cx="7.89285714" cy="27.7571885" rx="1" ry="1"></ellipse>
                <ellipse id="Oval-4" stroke="#06799E" fill="#06799E" cx="8.66666667" cy="20.7028754" rx="1.08333333" ry="1.07348243"></ellipse>
                <ellipse id="Oval-6" stroke="#06799E" fill="#06799E" cx="18.6488095" cy="24.6134185" rx="1.00595238" ry="1"></ellipse>
                <ellipse id="Oval-7" stroke="#06799E" fill="#06799E" cx="17.0238095" cy="18.3258786" rx="1" ry="1"></ellipse>
                <ellipse id="Oval-8" stroke="#06799E" fill="#06799E" cx="6.3452381" cy="12.5750799" rx="1.08333333" ry="1.07348243"></ellipse>
                <g id="Rectangle">
                    <use fill="#06799E" fill-rule="evenodd" xlink:href="#path-1"></use>
                    <rect stroke="#06799E" stroke-width="1" x="14.8928571" y="10.3146965" width="1" height="1" rx="0.5"></rect>
                </g>
                <g id="Rectangle-2">
                    <use fill="#06799E" fill-rule="evenodd" xlink:href="#path-2"></use>
                    <rect stroke="#06799E" stroke-width="1" x="5.45238095" y="4.64057508" width="1" height="1" rx="0.5"></rect>
                </g>
                <g id="Rectangle-3">
                    <use fill="#06799E" fill-rule="evenodd" xlink:href="#path-3"></use>
                    <rect stroke="#06799E" stroke-width="1" x="3.44047619" y="30.4041534" width="1.01190476" height="1" rx="0.5"></rect>
                </g>
                <g id="Rectangle-4">
                    <use fill="#06799E" fill-rule="evenodd" xlink:href="#path-4"></use>
                    <rect stroke="#06799E" stroke-width="1" x="13.5" y="33.471246" width="1.32142857" height="1.30031949" rx="0.650159744"></rect>
                </g>
                <g id="Rectangle-5">
                    <use fill="#06799E" fill-rule="evenodd" xlink:href="#path-5"></use>
                    <rect stroke="#06799E" stroke-width="1" x="7.30952381" y="41.5990415" width="1.16666667" height="1.14696486" rx="0.573482428"></rect>
                </g>
            </g>
            <g id="HEMISPHERE1" transform="translate(33.000000, 24.624067) scale(-1, 1) rotate(-54.000000) translate(-33.000000, -24.624067) translate(20.000000, 0.624067)">
                <path d="M0.0548618862,44.3723542 L0.0548618862,3.30625998 C1.80421322,1.90960738 3.37460323,0.971658099 4.7660319,0.492412141 C6.15746057,0.0131661822 7.58522983,-0.0815323002 9.04933966,0.208316693 C10.5130778,1.01972195 11.488249,1.69748752 11.9748535,2.24161342 C12.461458,2.78573931 12.9590437,3.44892821 13.4676107,4.23118011 C15.9603252,4.63263778 17.9812981,5.81220048 19.5305292,7.76986821 C21.0797604,9.72753594 21.6235429,12.0751797 21.1618769,14.8127995 C22.5125171,16.2874401 23.4692499,17.580022 24.0320754,18.6905451 C24.5949009,19.8010683 25.1670464,21.5671628 25.7485119,23.9888287 C26.0682121,26.0311205 25.7169751,28.120607 24.694801,30.2572883 C23.6726268,32.3939696 22.5660691,33.8857827 21.3751279,34.7327276 C21.3751279,36.3682109 21.0591053,37.9019569 20.4270601,39.3339657 C19.7950149,40.7659744 19.0629185,41.9180312 18.230771,42.7901358 C17.4110859,43.5699988 16.4777789,44.1593559 15.4308501,44.5582069 C14.3839213,44.9570579 13.3126787,45.131379 12.2171224,45.0811701 C10.5865808,46.7542931 8.74465216,47.696885 6.6913365,47.9089457 C4.63802083,48.1210064 2.42586263,46.9421426 0.0548618862,44.3723542 Z M8.9680292,0.930910543 L1.58676293,3.52670727 L1.58676293,44.8059105 L7.34695871,46.2466054 L12.2982817,43.1881989 L17.0600818,42.0101837 L24.9478004,24.0059904 L20.1782924,14.8622204 L18.6655855,8.13258786 C14.8660598,6.04462859 12.9268004,4.96041334 12.8478074,4.87994209 C12.7688143,4.79947085 11.4755549,3.483127 8.9680292,0.930910543 Z" id="Combined-Shape" stroke="#06799E" fill="#06799E"></path>
                <polyline id="Path-17" stroke="#06799E" stroke-width="2" points="12.8216611 4.86526558 5.86326962 5.08122005 8.66016788 1.07842452"></polyline>
                <polyline id="Path-18" stroke="#06799E" stroke-width="2" points="3.62859235 2.84844249 5.91133045 5.13124002 1.24746559 13.5527157 15.2593122 10.6494609 18.5572219 8.20057907"></polyline>
                <polyline id="Path-19" stroke="#06799E" stroke-width="2" points="5.92825753 5.1252496 15.2147275 10.6326877 20.0088704 14.797524 6.2973284 12.6143171 8.48651414 20.6928415 1.20212519 13.7171526"></polyline>
                <polyline id="Path-20" stroke="#06799E" stroke-width="2" points="8.48454939 20.7226438 17.0165551 18.5380891 20.0079636 14.8502396"></polyline>
                <polyline id="Path-21" stroke="#06799E" stroke-width="2" points="16.9913156 18.5548622 18.533796 24.5690895 24.8244745 24.0609525 14.1261044 34.3911242 18.533796 24.8537839 7.91431827 27.7095647 8.42651367 20.8291234 1.49457078 24.0609525 7.62126814 27.7095647 13.8457496 34.1377296 3.8406343 30.8491414 1.49457078 24.5690895"></polyline>
                <polyline id="Path-22" stroke="#06799E" stroke-width="2" points="3.85650344 30.9364517 1.23869978 35.517472 7.70545015 42.213109 13.9663551 34.4028055 17.128697 41.6306909"></polyline>
                <polyline id="Path-23" stroke="#06799E" stroke-width="2" points="12.2647298 43.1521066 7.68232654 42.3207867 7.68232654 45.9975539"></polyline>
                <path d="M2.93972052,44.9844249 C2.93972052,44.9844249 4.49968223,44.0890575 7.61960565,42.2983227" id="Path-24" stroke="#06799E" stroke-width="2"></path>
                <ellipse id="Oval-3" stroke="#06799E" fill="#06799E" cx="7.89285714" cy="27.7571885" rx="1" ry="1"></ellipse>
                <ellipse id="Oval-4" stroke="#06799E" fill="#06799E" cx="8.66666667" cy="20.7028754" rx="1.08333333" ry="1.07348243"></ellipse>
                <ellipse id="Oval-6" stroke="#06799E" fill="#06799E" cx="18.6488095" cy="24.6134185" rx="1.00595238" ry="1"></ellipse>
                <ellipse id="Oval-7" stroke="#06799E" fill="#06799E" cx="17.0238095" cy="18.3258786" rx="1" ry="1"></ellipse>
                <ellipse id="Oval-8" stroke="#06799E" fill="#06799E" cx="6.3452381" cy="12.5750799" rx="1.08333333" ry="1.07348243"></ellipse>
                <g id="Rectangle">
                    <use fill="#06799E" fill-rule="evenodd" xlink:href="#path-6"></use>
                    <rect stroke="#06799E" stroke-width="1" x="14.8928571" y="10.3146965" width="1" height="1" rx="0.5"></rect>
                </g>
                <g id="Rectangle-2">
                    <use fill="#06799E" fill-rule="evenodd" xlink:href="#path-7"></use>
                    <rect stroke="#06799E" stroke-width="1" x="5.45238095" y="4.64057508" width="1" height="1" rx="0.5"></rect>
                </g>
                <g id="Rectangle-3">
                    <use fill="#06799E" fill-rule="evenodd" xlink:href="#path-8"></use>
                    <rect stroke="#06799E" stroke-width="1" x="3.44047619" y="30.4041534" width="1.01190476" height="1" rx="0.5"></rect>
                </g>
                <g id="Rectangle-4">
                    <use fill="#06799E" fill-rule="evenodd" xlink:href="#path-9"></use>
                    <rect stroke="#06799E" stroke-width="1" x="13.5" y="33.471246" width="1.32142857" height="1.30031949" rx="0.650159744"></rect>
                </g>
                <g id="Rectangle-5">
                    <use fill="#06799E" fill-rule="evenodd" xlink:href="#path-10"></use>
                    <rect stroke="#06799E" stroke-width="1" x="7.30952381" y="41.5990415" width="1.16666667" height="1.14696486" rx="0.573482428"></rect>
                </g>
            </g>
        </g>
    </g>
</svg>