<?xml version="1.0" encoding="UTF-8"?>
<svg width="158px" height="156px" viewBox="0 0 158 156" version="1.1" xmlns="http://www.w3.org/2000/svg" xmlns:xlink="http://www.w3.org/1999/xlink">
    <!-- Generator: Sketch 48.2 (47327) - http://www.bohemiancoding.com/sketch -->
    <title>cog-medium</title>
    <desc>Created with Sketch.</desc>
    <defs></defs>
    <g id="Icons-&amp;-Logos" stroke="none" stroke-width="1" fill="none" fill-rule="evenodd">
        <g id="cog-medium" transform="translate(1.000000, 0.000000)" fill="#61556B" stroke="#61556B">
            <polygon id="Path-14" transform="translate(56.515822, 8.194803) rotate(-18.000000) translate(-56.515822, -8.194803) " points="52.0158223 12.1948025 56.5158223 11.373374 61.0158223 12.1948025 61.0158223 8.19480254 59.7619478 5.61216949 58.6792909 4.19480254 55.7619478 4.19480254 53.8549367 5.61216949 52.0158223 8.19480254"></polygon>
            <polygon id="Path-14" transform="translate(69.893462, 5.448466) rotate(-6.000000) translate(-69.893462, -5.448466) " points="65.3934624 9.44846567 69.8934624 8.62703709 74.3934624 9.44846567 74.3934624 5.44846567 73.1395878 2.86583261 72.056931 1.44846567 69.1395878 1.44846567 67.2325768 2.86583261 65.3934624 5.44846567"></polygon>
            <polygon id="Path-14" transform="translate(96.472858, 7.140892) rotate(17.000000) translate(-96.472858, -7.140892) " points="91.9728582 11.1408917 96.4728582 10.3194631 100.972858 11.1408917 100.972858 7.1408917 99.7189837 4.55825864 98.6363269 3.1408917 95.7189837 3.1408917 93.8119726 4.55825864 91.9728582 7.1408917"></polygon>
            <polygon id="Path-14" transform="translate(83.012899, 4.587351) rotate(4.000000) translate(-83.012899, -4.587351) " points="78.5128987 8.58735123 83.0128987 7.76592266 87.5128987 8.58735123 87.5128987 4.58735123 86.2590242 2.00471818 85.1763673 0.587351229 82.2590242 0.587351229 80.3520131 2.00471818 78.5128987 4.58735123"></polygon>
            <polygon id="Path-14" transform="translate(109.851150, 11.644412) rotate(28.000000) translate(-109.851150, -11.644412) " points="105.35115 15.6444124 109.85115 14.8229838 114.35115 15.6444124 114.35115 11.6444124 113.097276 9.06177935 112.014619 7.6444124 109.097276 7.6444124 107.190265 9.06177935 105.35115 11.6444124"></polygon>
            <polygon id="Path-14" transform="translate(122.020674, 18.983667) rotate(42.000000) translate(-122.020674, -18.983667) " points="117.520674 22.983667 122.020674 22.1622385 126.520674 22.983667 126.520674 18.983667 125.811256 16.6983795 124.184143 14.983667 121.2668 14.983667 119.085629 16.4526141 117.520674 18.983667"></polygon>
            <polygon id="Path-14" transform="translate(132.971104, 28.020429) rotate(49.000000) translate(-132.971104, -28.020429) " points="128.471104 32.0204292 132.971104 31.1990007 137.471104 32.0204292 137.471104 28.0204292 136.217229 25.4377962 135.134573 24.0204292 132.217229 24.0204292 130.310218 25.4377962 128.471104 28.0204292"></polygon>
            <polygon id="Path-14" transform="translate(141.746341, 38.917405) rotate(59.000000) translate(-141.746341, -38.917405) " points="137.246341 42.9174052 141.746341 42.0959766 146.246341 42.9174052 146.246341 38.9174052 144.992466 36.3347721 143.909809 34.9174052 140.992466 34.9174052 139.085455 36.3347721 137.246341 38.9174052"></polygon>
            <polygon id="Path-14" transform="translate(147.028389, 51.000000) rotate(66.000000) translate(-147.028389, -51.000000) " points="142.528389 55 147.028389 54.1785714 151.528389 55 151.528389 51 150.274514 48.4173669 149.191858 47 146.274514 47 144.367503 48.4173669 142.528389 51"></polygon>
            <polygon id="Path-14" transform="translate(150.848193, 64.997196) rotate(82.000000) translate(-150.848193, -64.997196) " points="146.348193 68.9971958 150.848193 68.1757672 155.348193 68.9971958 155.348193 64.9971958 154.094318 62.4145627 153.011662 60.9971958 150.094318 60.9971958 148.187307 62.4145627 146.348193 64.9971958"></polygon>
            <polygon id="Path-14" transform="translate(152.154611, 79.131207) rotate(92.000000) translate(-152.154611, -79.131207) " points="147.654611 83.1312074 152.154611 82.3097788 156.654611 83.1312074 156.654611 79.1312074 155.400737 76.5485744 154.31808 75.1312074 151.400737 75.1312074 149.493725 76.5485744 147.654611 79.1312074"></polygon>
            <polygon id="Path-14" transform="translate(150.587351, 92.012899) rotate(98.000000) translate(-150.587351, -92.012899) " points="146.087351 96.0128987 150.587351 95.1914701 155.087351 96.0128987 155.087351 92.0128987 153.833477 89.4302657 152.75082 88.0128987 149.833477 88.0128987 147.926466 89.4302657 146.087351 92.0128987"></polygon>
            <polygon id="Path-14" transform="translate(146.297861, 106.596697) rotate(110.000000) translate(-146.297861, -106.596697) " points="141.797861 110.596697 146.297861 109.775269 150.797861 110.596697 150.797861 106.596697 149.543987 104.014064 148.46133 102.596697 145.543987 102.596697 143.636976 104.014064 141.797861 106.596697"></polygon>
            <polygon id="Path-14" transform="translate(139.247131, 119.557106) rotate(126.000000) translate(-139.247131, -119.557106) " points="134.747131 123.557106 139.247131 122.735678 143.747131 123.557106 143.747131 119.557106 142.493256 116.974473 141.4106 115.557106 138.493256 115.557106 136.586245 116.974473 134.747131 119.557106"></polygon>
            <polygon id="Path-14" transform="translate(129.956722, 130.018350) rotate(130.000000) translate(-129.956722, -130.018350) " points="125.456722 134.01835 129.956722 133.196922 134.456722 134.01835 134.456722 130.01835 133.202847 127.435717 132.120191 126.01835 129.202847 126.01835 127.295836 127.435717 125.456722 130.01835"></polygon>
            <polygon id="Path-14" transform="translate(119.014438, 138.940526) rotate(141.000000) translate(-119.014438, -138.940526) " points="114.514438 142.940526 119.014438 142.119097 123.514438 142.940526 123.514438 138.940526 122.260564 136.357893 121.177907 134.940526 118.260564 134.940526 116.353553 136.357893 114.514438 138.940526"></polygon>
            <polygon id="Path-14" transform="translate(107.737901, 145.484497) rotate(156.000000) translate(-107.737901, -145.484497) " points="103.237901 149.484497 107.737901 148.663068 112.237901 149.484497 112.237901 145.484497 110.984027 142.901864 109.90137 141.484497 106.984027 141.484497 105.077016 142.901864 103.237901 145.484497"></polygon>
            <polygon id="Path-14" transform="translate(94.967441, 149.832518) rotate(166.000000) translate(-94.967441, -149.832518) " points="90.4674407 153.832518 94.9674407 153.01109 99.4674407 153.832518 99.4674407 149.832518 98.2135662 147.249885 97.1309093 145.832518 94.2135662 145.832518 92.3065551 147.249885 90.4674407 149.832518"></polygon>
            <polygon id="Path-14" transform="translate(81.703177, 151.230030) rotate(177.000000) translate(-81.703177, -151.230030) " points="77.2031767 155.23003 81.7031767 154.408601 86.2031767 155.23003 86.2031767 151.23003 84.9493022 148.647397 83.8666454 147.23003 80.9493022 147.23003 79.0422911 148.647397 77.2031767 151.23003"></polygon>
            <polygon id="Path-14" transform="translate(54.566046, 146.566046) rotate(196.000000) translate(-54.566046, -146.566046) " points="50.0660457 149.824543 50.6219044 145.686915 52.7063261 143.269118 54.6925201 142.066046 57.4296821 142.468478 58.2485079 144.083959 59.0660457 146.928418 58.510187 151.066046 54.4022659 149.595603"></polygon>
            <polygon id="Path-14" transform="translate(67.831499, 150.376980) rotate(185.000000) translate(-67.831499, -150.376980) " points="63.3314991 154.37698 67.8314991 153.555551 72.3314991 154.37698 72.3314991 150.37698 71.0776246 147.794347 69.9949677 146.37698 67.0776246 146.37698 65.1706135 147.794347 63.3314991 150.37698"></polygon>
            <polygon id="Path-14" transform="translate(41.875027, 140.680122) rotate(209.000000) translate(-41.875027, -140.680122) " points="37.3750272 144.680122 41.8750272 143.858694 46.3750272 144.680122 46.3750272 140.680122 45.1211526 138.097489 44.0384958 136.680122 41.1211526 136.680122 39.2141416 138.097489 37.3750272 140.680122"></polygon>
            <polygon id="Path-14" transform="translate(30.014438, 132.940526) rotate(219.000000) translate(-30.014438, -132.940526) " points="25.5144384 136.940526 30.0144384 136.119097 34.5144384 136.940526 34.5144384 132.940526 33.2605639 130.357893 32.177907 128.940526 29.2605639 128.940526 27.3535528 130.357893 25.5144384 132.940526"></polygon>
            <polygon id="Path-14" transform="translate(19.983667, 123.020674) rotate(-132.000000) translate(-19.983667, -123.020674) " points="15.483667 127.020674 19.983667 126.199246 24.483667 127.020674 24.483667 123.020674 23.2297925 120.438041 22.1471357 119.020674 19.2297925 119.020674 17.3227814 120.438041 15.483667 123.020674"></polygon>
            <polygon id="Path-14" transform="translate(12.680122, 110.875027) rotate(241.000000) translate(-12.680122, -110.875027) " points="8.18012212 114.875027 12.6801221 114.053599 17.1801221 114.875027 17.1801221 110.875027 15.9262476 108.292394 14.8435908 106.875027 11.9262476 106.875027 10.0192365 108.292394 8.18012212 110.875027"></polygon>
            <polygon id="Path-14" transform="translate(6.969831, 97.334018) rotate(256.000000) translate(-6.969831, -97.334018) " points="2.46983144 101.334018 6.96983144 100.51259 11.4698314 101.334018 11.4698314 97.3340184 10.2159569 94.7513853 9.13330007 93.3340184 6.2159569 93.3340184 4.30894583 94.7513853 2.46983144 97.3340184"></polygon>
            <polygon id="Path-14" transform="translate(4.304160, 83.768064) rotate(-94.000000) translate(-4.304160, -83.768064) " points="-0.195839667 87.7680641 4.30416033 86.9466355 8.80416033 87.7680641 8.80416033 83.7680641 7.55028579 81.1854311 6.46762897 79.7680641 3.55028579 79.7680641 1.64327472 81.1854311 -0.195839667 83.7680641"></polygon>
            <polygon id="Path-14" transform="translate(5.230030, 69.703177) rotate(-87.000000) translate(-5.230030, -69.703177) " points="0.730029942 73.7031767 5.23002994 72.8817482 9.73002994 73.7031767 9.73002994 69.7031767 8.4761554 67.1205437 7.39349858 65.7031767 4.4761554 65.7031767 2.56914433 67.1205437 0.730029942 69.7031767"></polygon>
            <polygon id="Path-14" transform="translate(8.028389, 55.381942) rotate(-75.000000) translate(-8.028389, -55.381942) " points="3.52838901 59.3819424 8.02838901 58.5605138 12.528389 59.3819424 12.528389 55.3819424 11.2745145 52.7993093 10.1918576 51.3819424 7.27451447 51.3819424 5.3675034 52.7993093 3.52838901 55.3819424"></polygon>
            <polygon id="Path-14" transform="translate(13.527013, 42.768858) rotate(-65.000000) translate(-13.527013, -42.768858) " points="9.02701333 46.7688581 13.5270133 45.9474295 18.0270133 46.7688581 18.0270133 42.7688581 16.7731388 40.186225 15.690482 38.7688581 12.7731388 38.7688581 10.8661277 40.186225 9.02701333 42.7688581"></polygon>
            <polygon id="Path-14" transform="translate(21.881102, 30.991717) rotate(306.000000) translate(-21.881102, -30.991717) " points="17.3811016 34.9917175 21.8811016 34.1702889 26.3811016 34.9917175 26.3811016 30.9917175 25.1272271 28.4090844 24.0445702 26.9917175 21.1272271 26.9917175 19.220216 28.4090844 17.3811016 30.9917175"></polygon>
            <polygon id="Path-14" transform="translate(32.930118, 21.280690) rotate(-39.000000) translate(-32.930118, -21.280690) " points="27.9519652 24.9883182 33.40827 24.4592613 37.90827 25.2806899 37.90827 21.2806899 36.6543955 18.6980569 35.5717386 17.2806899 32.6543955 17.2806899 30.7473844 18.6980569 28.90827 21.2806899"></polygon>
            <polygon id="Path-14" transform="translate(43.851150, 12.644412) rotate(-28.000000) translate(-43.851150, -12.644412) " points="39.3511504 16.6444124 43.8511504 15.8229838 48.3511504 16.6444124 48.3511504 12.6444124 47.0972759 10.0617794 46.0146191 8.6444124 43.0972759 8.6444124 41.1902648 10.0617794 39.3511504 12.6444124"></polygon>
            <ellipse id="Oval-6" stroke-width="3" cx="78.5" cy="78" rx="69.5" ry="69"></ellipse>
        </g>
    </g>
</svg>