<?xml version="1.0" encoding="UTF-8"?>
<svg width="206px" height="206px" viewBox="0 0 206 206" version="1.1" xmlns="http://www.w3.org/2000/svg" xmlns:xlink="http://www.w3.org/1999/xlink">
    <!-- Generator: Sketch 48.2 (47327) - http://www.bohemiancoding.com/sketch -->
    <title>cog-large</title>
    <desc>Created with Sketch.</desc>
    <defs></defs>
    <g id="Icons-&amp;-Logos" stroke="none" stroke-width="1" fill="none" fill-rule="evenodd">
        <g id="cog-large" transform="translate(1.000000, 1.000000)" fill="#61556B" stroke="#61556B">
            <polygon id="Path-14" points="96 12.5844865 101.649414 11.4976865 107.298828 12.5844865 107.298828 7.29224323 105.724682 3.87526266 104.365487 2 100.702981 2 98.3088708 3.87526266 96 7.29224323"></polygon>
            <polygon id="Path-14" transform="translate(116.407750, 8.110850) rotate(4.000000) translate(-116.407750, -8.110850) " points="110.758336 13.4030932 116.40775 12.3162933 122.057164 13.4030932 122.057164 8.11085001 120.483018 4.69386943 119.123823 2.81860677 115.461316 2.81860677 113.067206 4.69386943 110.758336 8.11085001"></polygon>
            <polygon id="Path-14" transform="translate(131.889305, 11.644420) rotate(16.000000) translate(-131.889305, -11.644420) " points="126.239891 16.9366635 131.889305 15.8498635 137.538719 16.9366635 137.538719 11.6444203 135.964573 8.22743969 134.605379 6.35217703 130.942872 6.35217703 128.548762 8.22743969 126.239891 11.6444203"></polygon>
            <polygon id="Path-14" transform="translate(131.889305, 11.644420) rotate(8.000000) translate(-131.889305, -11.644420) " points="126.239891 16.9366635 131.889305 15.8498635 137.538719 16.9366635 137.538719 11.6444203 135.964573 8.22743969 134.605379 6.35217703 130.942872 6.35217703 128.548762 8.22743969 126.239891 11.6444203"></polygon>
            <polygon id="Path-14" transform="translate(146.472694, 17.325013) rotate(28.000000) translate(-146.472694, -17.325013) " points="140.82328 22.6172559 146.472694 21.530456 152.122108 22.6172559 152.122108 17.3250127 150.547962 13.9080321 149.188768 12.0327694 145.526261 12.0327694 143.132151 13.9080321 140.82328 17.3250127"></polygon>
            <polygon id="Path-14" transform="translate(159.330972, 26.026986) rotate(42.000000) translate(-159.330972, -26.026986) " points="153.681558 31.3192292 159.330972 30.2324292 164.980386 31.3192292 164.980386 26.026986 164.089764 23.0034116 162.047046 20.7347427 158.384539 20.7347427 155.646242 22.6782491 153.681558 26.026986"></polygon>
            <polygon id="Path-14" transform="translate(170.700456, 36.735691) rotate(49.000000) translate(-170.700456, -36.735691) " points="165.051042 42.0279341 170.700456 40.9411342 176.34987 42.0279341 176.34987 36.7356909 174.775724 33.3187103 173.416529 31.4434476 169.754023 31.4434476 167.359913 33.3187103 165.051042 36.7356909"></polygon>
            <polygon id="Path-14" transform="translate(181.446001, 47.568200) rotate(59.000000) translate(-181.446001, -47.568200) " points="175.796587 52.860443 181.446001 51.7736431 187.095415 52.860443 187.095415 47.5681998 185.521269 44.1512192 184.162075 42.2759565 180.499568 42.2759565 178.105458 44.1512192 175.796587 47.5681998"></polygon>
            <polygon id="Path-14" transform="translate(189.574090, 61.826648) rotate(75.000000) translate(-189.574090, -61.826648) " points="183.924676 67.1188915 189.57409 66.0320916 195.223504 67.1188915 195.223504 61.8266483 193.649359 58.4096677 192.290164 56.5344051 188.627657 56.5344051 186.233547 58.4096677 183.924676 61.8266483"></polygon>
            <polygon id="Path-14" transform="translate(195.351174, 75.680252) rotate(78.000000) translate(-195.351174, -75.680252) " points="189.70176 80.9724952 195.351174 79.8856953 201.000588 80.9724952 201.000588 75.680252 199.426442 72.2632714 198.067248 70.3880087 194.404741 70.3880087 192.010631 72.2632714 189.70176 75.680252"></polygon>
            <polygon id="Path-14" transform="translate(197.330972, 90.026986) rotate(86.000000) translate(-197.330972, -90.026986) " points="191.681558 95.3192292 197.330972 94.2324292 202.980386 95.3192292 202.980386 90.026986 201.40624 86.6100054 200.047046 84.7347427 196.384539 84.7347427 193.990429 86.6100054 191.681558 90.026986"></polygon>
            <polygon id="Path-14" transform="translate(198.390033, 104.740916) rotate(89.000000) translate(-198.390033, -104.740916) " points="192.740619 110.033159 198.390033 108.946359 204.039447 110.033159 204.039447 104.740916 202.465301 101.323935 201.106106 99.4486728 197.4436 99.4486728 195.04949 101.323935 192.740619 104.740916"></polygon>
            <polygon id="Path-14" transform="translate(197.330972, 120.026986) rotate(99.000000) translate(-197.330972, -120.026986) " points="191.681558 125.319229 197.330972 124.232429 202.980386 125.319229 202.980386 120.026986 201.40624 116.610005 200.047046 114.734743 196.384539 114.734743 193.990429 116.610005 191.681558 120.026986"></polygon>
            <polygon id="Path-14" transform="translate(193.330972, 135.026986) rotate(109.000000) translate(-193.330972, -135.026986) " points="187.681558 140.319229 193.330972 139.232429 198.980386 140.319229 198.980386 135.026986 197.40624 131.610005 196.047046 129.734743 192.384539 129.734743 189.990429 131.610005 187.681558 135.026986"></polygon>
            <polygon id="Path-14" transform="translate(186.280204, 149.436293) rotate(117.000000) translate(-186.280204, -149.436293) " points="180.63079 154.728536 186.280204 153.641736 191.929618 154.728536 191.929618 149.436293 190.355472 146.019312 188.996277 144.14405 185.33377 144.14405 182.93966 146.019312 180.63079 149.436293"></polygon>
            <polygon id="Path-14" transform="translate(177.626476, 162.696774) rotate(127.000000) translate(-177.626476, -162.696774) " points="171.977062 167.989017 177.626476 166.902217 183.27589 167.989017 183.27589 162.696774 181.701744 159.279794 180.342549 157.404531 176.680042 157.404531 174.285932 159.279794 171.977062 162.696774"></polygon>
            <polygon id="Path-14" transform="translate(167.685467, 173.729491) rotate(130.000000) translate(-167.685467, -173.729491) " points="162.036053 179.021734 167.685467 177.934934 173.334881 179.021734 173.334881 173.729491 171.760735 170.31251 170.40154 168.437247 166.739034 168.437247 164.344924 170.31251 162.036053 173.729491"></polygon>
            <polygon id="Path-14" transform="translate(154.741021, 182.723393) rotate(146.000000) translate(-154.741021, -182.723393) " points="149.091607 188.015636 154.741021 186.928836 160.390435 188.015636 160.390435 182.723393 158.816289 179.306412 157.457094 177.43115 153.794588 177.43115 151.400478 179.306412 149.091607 182.723393"></polygon>
            <polygon id="Path-14" transform="translate(141.330972, 191.026986) rotate(152.000000) translate(-141.330972, -191.026986) " points="135.681558 196.319229 141.330972 195.232429 146.980386 196.319229 146.980386 191.026986 145.40624 187.610005 144.047046 185.734743 140.384539 185.734743 137.990429 187.610005 135.681558 191.026986"></polygon>
            <polygon id="Path-14" transform="translate(109.962703, 198.354250) rotate(174.000000) translate(-109.962703, -198.354250) " points="104 202.481479 104.736538 197.240739 107.498491 194.178345 110.130288 192.654528 113.757151 193.164251 114.842132 195.210427 115.925407 198.813232 115.188869 204.053972 109.745688 202.191502"></polygon>
            <polygon id="Path-14" transform="translate(126.000000, 196.026986) rotate(167.000000) translate(-126.000000, -196.026986) " points="120.350586 201.319229 126 200.232429 131.649414 201.319229 131.649414 196.026986 130.075268 192.610005 128.716073 190.734743 125.053567 190.734743 122.659457 192.610005 120.350586 196.026986"></polygon>
            <polygon id="Path-14" transform="translate(92.873720, 198.351174) rotate(192.000000) translate(-92.873720, -198.351174) " points="87.2243059 203.643417 92.87372 202.556618 98.523134 203.643417 98.523134 198.351174 96.9489881 194.934194 95.5897933 193.058931 91.9272867 193.058931 89.5331767 194.934194 87.2243059 198.351174"></polygon>
            <polygon id="Path-14" transform="translate(77.000000, 195.965304) rotate(201.000000) translate(-77.000000, -195.965304) " points="71.3505859 201.257547 77 200.170747 82.6494141 201.257547 82.6494141 195.965304 81.0752682 192.548323 79.7160734 190.67306 76.0535668 190.67306 73.6594568 192.548323 71.3505859 195.965304"></polygon>
            <polygon id="Path-14" transform="translate(60.973934, 190.546581) rotate(-146.000000) translate(-60.973934, -190.546581) " points="55.3245196 195.838824 60.9739336 194.752024 66.6233477 195.838824 66.6233477 190.546581 65.0492018 187.1296 63.690007 185.254338 60.0275004 185.254338 57.6333904 187.1296 55.3245196 190.546581"></polygon>
            <polygon id="Path-14" transform="translate(46.735691, 182.700456) rotate(221.000000) translate(-46.735691, -182.700456) " points="41.0862768 187.992699 46.7356909 186.905899 52.3851049 187.992699 52.3851049 182.700456 50.8109591 179.283475 49.4517642 177.408213 45.7892577 177.408213 43.3951476 179.283475 41.0862768 182.700456"></polygon>
            <polygon id="Path-14" transform="translate(34.668137, 170.720936) rotate(231.000000) translate(-34.668137, -170.720936) " points="29.0187229 176.013179 34.6681369 174.926379 40.317551 176.013179 40.317551 170.720936 38.7434051 167.303955 37.3842103 165.428693 33.7217037 165.428693 31.3275937 167.303955 29.0187229 170.720936"></polygon>
            <polygon id="Path-14" transform="translate(23.366129, 160.123666) rotate(-124.000000) translate(-23.366129, -160.123666) " points="17.7167144 165.415909 23.3661285 164.329109 29.0155426 165.415909 29.0155426 160.123666 27.4413967 156.706685 26.0822019 154.831422 22.4196953 154.831422 20.0255853 156.706685 17.7167144 160.123666"></polygon>
            <polygon id="Path-14" transform="translate(14.992105, 147.265755) rotate(-113.000000) translate(-14.992105, -147.265755) " points="9.34269101 152.557999 14.9921051 151.471199 20.6415191 152.557999 20.6415191 147.265755 19.0673733 143.848775 17.7081784 141.973512 14.0456719 141.973512 11.6515618 143.848775 9.34269101 147.265755"></polygon>
            <polygon id="Path-14" transform="translate(9.324136, 132.561654) rotate(-105.000000) translate(-9.324136, -132.561654) " points="3.67472226 137.853897 9.32413632 136.767097 14.9735504 137.853897 14.9735504 132.561654 13.3994045 129.144673 12.0402097 127.269411 8.37770311 127.269411 5.98359308 129.144673 3.67472226 132.561654"></polygon>
            <polygon id="Path-14" transform="translate(6.351480, 118.225716) rotate(-99.000000) translate(-6.351480, -118.225716) " points="0.702066005 123.51796 6.35148007 122.43116 12.0008941 123.51796 12.0008941 118.225716 10.4267483 114.808736 9.06755343 112.933473 5.40504686 112.933473 3.01093683 114.808736 0.702066005 118.225716"></polygon>
            <polygon id="Path-14" transform="translate(5.580658, 103.918646) rotate(273.000000) translate(-5.580658, -103.918646) " points="-0.0687561758 109.21089 5.58065789 108.12409 11.2300719 109.21089 11.2300719 103.918646 9.65592607 100.501666 8.29673125 98.6264031 4.63422468 98.6264031 2.24011465 100.501666 -0.0687561758 103.918646"></polygon>
            <polygon id="Path-14" transform="translate(6.574090, 87.826648) rotate(285.000000) translate(-6.574090, -87.826648) " points="0.92467631 93.1188915 6.57409037 92.0320916 12.2235044 93.1188915 12.2235044 87.8266483 10.6493586 84.4096677 9.29016373 82.5344051 5.62765717 82.5344051 3.23354713 84.4096677 0.92467631 87.8266483"></polygon>
            <polygon id="Path-14" transform="translate(9.176187, 72.682748) rotate(-72.000000) translate(-9.176187, -72.682748) " points="3.52677304 77.9749909 9.1761871 76.888191 14.8256012 77.9749909 14.8256012 72.6827477 13.2514553 69.2657671 11.8922605 67.3905044 8.22975389 67.3905044 5.83564386 69.2657671 3.52677304 72.6827477"></polygon>
            <polygon id="Path-14" transform="translate(14.693277, 58.511849) rotate(-63.000000) translate(-14.693277, -58.511849) " points="9.04386288 63.8040925 14.6932769 62.7172925 20.342691 63.8040925 20.342691 58.5118492 18.7685451 55.0948687 17.4093503 53.219606 13.7468437 53.219606 11.3527337 55.0948687 9.04386288 58.5118492"></polygon>
            <polygon id="Path-14" transform="translate(23.668137, 45.720936) rotate(-51.000000) translate(-23.668137, -45.720936) " points="18.0187229 51.0131791 23.6681369 49.9263792 29.317551 51.0131791 29.317551 45.7209359 27.7434051 42.3039553 26.3842103 40.4286927 22.7217037 40.4286927 20.3275937 42.3039553 18.0187229 45.7209359"></polygon>
            <polygon id="Path-14" transform="translate(32.719644, 33.150033) rotate(-41.000000) translate(-32.719644, -33.150033) " points="27.0702301 38.4422761 32.7196441 37.3554761 38.3690582 38.4422761 38.3690582 33.1500328 36.7949123 29.7330523 35.4357175 27.8577896 31.7732109 27.8577896 29.3791009 29.7330523 27.0702301 33.1500328"></polygon>
            <polygon id="Path-14" transform="translate(45.425699, 23.917611) rotate(-37.000000) translate(-45.425699, -23.917611) " points="39.7762848 29.2098542 45.4256988 28.1230542 51.0751129 29.2098542 51.0751129 23.917611 49.500967 20.5006304 48.1417722 18.6253677 44.4792656 18.6253677 42.0851556 20.5006304 39.7762848 23.917611"></polygon>
            <polygon id="Path-14" transform="translate(58.304605, 15.939095) rotate(-26.000000) translate(-58.304605, -15.939095) " points="52.655191 21.2313386 58.3046051 20.1445386 63.9540191 21.2313386 63.9540191 15.9390953 62.3798733 12.5221148 61.0206784 10.6468521 57.3581719 10.6468521 54.9640618 12.5221148 52.655191 15.9390953"></polygon>
            <polygon id="Path-14" transform="translate(71.949864, 9.712726) rotate(-17.000000) translate(-71.949864, -9.712726) " points="66.3004497 15.0049694 71.9498637 13.9181695 77.5992778 15.0049694 77.5992778 9.7127262 76.0251319 6.29574562 74.6659371 4.42048296 71.0034305 4.42048296 68.6093205 6.29574562 66.3004497 9.7127262"></polygon>
            <polygon id="Path-14" transform="translate(87.407750, 6.110850) rotate(-9.000000) translate(-87.407750, -6.110850) " points="81.7583356 11.4030932 87.4077496 10.3162933 93.0571637 11.4030932 93.0571637 6.11085001 91.4830178 2.69386943 90.123823 0.81860677 86.4613164 0.81860677 84.0672064 2.69386943 81.7583356 6.11085001"></polygon>
            <circle id="Oval-6" stroke-width="3" cx="101.5" cy="102.5" r="92.5"></circle>
        </g>
    </g>
</svg>